<?xml version="1.0" encoding="UTF-8" standalone="no"?>
<svg width="17px" height="18px" viewBox="0 0 17 18" version="1.1" xmlns="http://www.w3.org/2000/svg" xmlns:sketch="http://www.bohemiancoding.com/sketch/ns">
    <!-- Generator: Sketch 3.5.1 (25234) - http://www.bohemiancoding.com/sketch -->
    <title>missing</title>
    <desc>Created with Sketch.</desc>
    <defs></defs>
    <g id="Page-1" stroke="none" stroke-width="1" fill="none" fill-rule="evenodd" sketch:type="MSPage">
        <g id="slices" sketch:type="MSArtboardGroup" transform="translate(-179.000000, -38.000000)" fill="#CD4A5A">
            <path d="M187.509032,49.9427159 L182.422054,55.0480044 C181.756818,55.715634 180.676318,55.7175751 180.008688,55.0523399 C179.341059,54.3871047 179.339118,53.3066043 180.004353,52.6389746 L185.099987,47.5249996 L180.004353,42.4110246 C179.339118,41.743395 179.341059,40.6628946 180.008688,39.9976593 C180.676318,39.3324241 181.756818,39.3343652 182.422054,40.0019948 L187.509032,45.1072833 L192.596011,40.0019948 C193.261246,39.3343652 194.341747,39.3324241 195.009376,39.9976593 C195.677006,40.6628946 195.678947,41.743395 195.013712,42.4110246 L189.918078,47.5249996 L195.013712,52.6389746 C195.678947,53.3066043 195.677006,54.3871047 195.009376,55.0523399 C194.341747,55.7175751 193.261246,55.715634 192.596011,55.0480044 L187.509032,49.9427159 Z" id="Shape" sketch:type="MSShapeGroup"></path>
        </g>
    </g>
</svg>