<?xml version="1.0" encoding="UTF-8" standalone="no"?>
<svg width="12px" height="18px" viewBox="0 0 12 18" version="1.1" xmlns="http://www.w3.org/2000/svg" xmlns:sketch="http://www.bohemiancoding.com/sketch/ns">
    <!-- Generator: Sketch 3.5.1 (25234) - http://www.bohemiancoding.com/sketch -->
    <title>not-available</title>
    <desc>Created with Sketch.</desc>
    <defs></defs>
    <g id="Page-1" stroke="none" stroke-width="1" fill="none" fill-rule="evenodd" sketch:type="MSPage">
        <g id="slices" sketch:type="MSArtboardGroup" transform="translate(-152.000000, -38.000000)" fill="#A8B6C3">
            <path d="M154.845855,54.6841921 L163.675261,40.6990439 C164.023714,40.1471198 163.835396,39.431243 163.254641,39.1000885 C162.673887,38.768934 161.920615,38.9479032 161.572163,39.4998274 L152.742756,53.4849755 C152.394304,54.0368997 152.582621,54.7527764 153.163376,55.0839309 C153.74413,55.4150854 154.497402,55.2361162 154.845855,54.6841921 L154.845855,54.6841921 Z" id="Shape" sketch:type="MSShapeGroup"></path>
            <path d="M154.845855,54.6841921 L163.675261,40.6990439 C164.023714,40.1471198 163.835396,39.431243 163.254641,39.1000885 C162.673887,38.768934 161.920615,38.9479032 161.572163,39.4998274 L152.742756,53.4849755 C152.394304,54.0368997 152.582621,54.7527764 153.163376,55.0839309 C153.74413,55.4150854 154.497402,55.2361162 154.845855,54.6841921 L154.845855,54.6841921 Z" id="Shape" sketch:type="MSShapeGroup"></path>
        </g>
    </g>
</svg>